<mxfile host="app.diagrams.net" modified="2024-01-14T12:26:36.718Z" agent="Mozilla/5.0 (Windows NT 10.0; Win64; x64) AppleWebKit/537.36 (KHTML, like Gecko) Chrome/120.0.0.0 Safari/537.36" version="22.1.17" etag="uPNqItqziIunj5p_p--2" type="github">
  <diagram name="第 1 页" id="82NI8okff_gknXg_c-RJ">
    <mxGraphModel>
      <root>
        <mxCell id="0" />
        <mxCell id="1" parent="0" />
      </root>
    </mxGraphModel>
  </diagram>
</mxfile>
